<svg width="128" height="128" viewBox="0 0 128 128" fill="none" xmlns="http://www.w3.org/2000/svg">
<rect width="128" height="128" fill="url(#paint0_linear_2018_225)"/>
<mask id="path-2-outside-1_2018_225" maskUnits="userSpaceOnUse" x="38.7578" y="34" width="52" height="60" fill="black">
<rect fill="white" x="38.7578" y="34" width="52" height="60"/>
<path d="M60.9948 93H40.5846V35.4242H61.1635C66.9548 35.4242 71.9402 36.5769 76.1197 38.8822C80.2992 41.1687 83.5134 44.4579 85.7625 48.7499C88.0303 53.0418 89.1642 58.1772 89.1642 64.1559C89.1642 70.1534 88.0303 75.3074 85.7625 79.6181C83.5134 83.9288 80.2804 87.2368 76.0634 89.5421C71.8652 91.8474 66.8423 93 60.9948 93ZM52.7576 82.57H60.4887C64.0872 82.57 67.1141 81.9328 69.5693 80.6583C72.0433 79.3651 73.8987 77.3691 75.1357 74.6702C76.3914 71.9526 77.0193 68.4478 77.0193 64.1559C77.0193 59.9014 76.3914 56.4248 75.1357 53.7259C73.8987 51.027 72.0526 49.0404 69.5974 47.7659C67.1422 46.4915 64.1153 45.8542 60.5169 45.8542H52.7576V82.57Z"/>
</mask>
<path d="M60.9948 93H40.5846V35.4242H61.1635C66.9548 35.4242 71.9402 36.5769 76.1197 38.8822C80.2992 41.1687 83.5134 44.4579 85.7625 48.7499C88.0303 53.0418 89.1642 58.1772 89.1642 64.1559C89.1642 70.1534 88.0303 75.3074 85.7625 79.6181C83.5134 83.9288 80.2804 87.2368 76.0634 89.5421C71.8652 91.8474 66.8423 93 60.9948 93ZM52.7576 82.57H60.4887C64.0872 82.57 67.1141 81.9328 69.5693 80.6583C72.0433 79.3651 73.8987 77.3691 75.1357 74.6702C76.3914 71.9526 77.0193 68.4478 77.0193 64.1559C77.0193 59.9014 76.3914 56.4248 75.1357 53.7259C73.8987 51.027 72.0526 49.0404 69.5974 47.7659C67.1422 46.4915 64.1153 45.8542 60.5169 45.8542H52.7576V82.57Z" fill="black" fill-opacity="0.01"/>
<path d="M40.5846 93H39.5846V94H40.5846V93ZM40.5846 35.4242V34.4242H39.5846V35.4242H40.5846ZM76.1197 38.8822L75.6367 39.7578L75.6397 39.7595L76.1197 38.8822ZM85.7625 48.7499L84.8767 49.214L84.8783 49.2171L85.7625 48.7499ZM85.7625 79.6181L84.8775 79.1525L84.8759 79.1556L85.7625 79.6181ZM76.0634 89.5421L75.5838 88.6646L75.5821 88.6655L76.0634 89.5421ZM52.7576 82.57H51.7576V83.57H52.7576V82.57ZM69.5693 80.6583L70.03 81.5459L70.0326 81.5445L69.5693 80.6583ZM75.1357 74.6702L74.2279 74.2508L74.2266 74.2536L75.1357 74.6702ZM75.1357 53.7259L74.2266 54.1426L74.229 54.1478L75.1357 53.7259ZM69.5974 47.7659L70.0581 46.8784V46.8784L69.5974 47.7659ZM52.7576 45.8542V44.8542H51.7576V45.8542H52.7576ZM60.9948 93V92H40.5846V93V94H60.9948V93ZM40.5846 93H41.5846V35.4242H40.5846H39.5846V93H40.5846ZM40.5846 35.4242V36.4242H61.1635V35.4242V34.4242H40.5846V35.4242ZM61.1635 35.4242V36.4242C66.8217 36.4242 71.6336 37.5498 75.6367 39.7578L76.1197 38.8822L76.6026 38.0065C72.2468 35.604 67.0879 34.4242 61.1635 34.4242V35.4242ZM76.1197 38.8822L75.6397 39.7595C79.643 41.9496 82.7176 45.0936 84.8767 49.214L85.7625 48.7499L86.6482 48.2857C84.3093 43.8222 80.9553 40.3878 76.5996 38.0049L76.1197 38.8822ZM85.7625 48.7499L84.8783 49.2171C87.0544 53.3354 88.1642 58.3028 88.1642 64.1559H89.1642H90.1642C90.1642 58.0515 89.0062 52.7482 86.6466 48.2827L85.7625 48.7499ZM89.1642 64.1559H88.1642C88.1642 70.0281 87.0542 75.0149 84.8775 79.1525L85.7625 79.6181L86.6475 80.0837C89.0063 75.6 90.1642 70.2786 90.1642 64.1559H89.1642ZM85.7625 79.6181L84.8759 79.1556C82.7173 83.2929 79.6249 86.4555 75.5838 88.6646L76.0634 89.5421L76.5431 90.4195C80.936 88.0181 84.3096 84.5647 86.6491 80.0807L85.7625 79.6181ZM76.0634 89.5421L75.5821 88.6655C71.5606 90.8738 66.7109 92 60.9948 92V93V94C66.9737 94 72.1698 92.821 76.5448 90.4186L76.0634 89.5421ZM52.7576 82.57V83.57H60.4887V82.57V81.57H52.7576V82.57ZM60.4887 82.57V83.57C64.201 83.57 67.3961 82.9131 70.03 81.5459L69.5693 80.6583L69.1086 79.7708C66.832 80.9525 63.9735 81.57 60.4887 81.57V82.57ZM69.5693 80.6583L70.0326 81.5445C72.716 80.1418 74.7216 77.9737 76.0448 75.0869L75.1357 74.6702L74.2266 74.2536C73.0758 76.7645 71.3705 78.5884 69.106 79.7721L69.5693 80.6583ZM75.1357 74.6702L76.0435 75.0897C77.3804 72.1964 78.0193 68.5345 78.0193 64.1559H77.0193H76.0193C76.0193 68.3612 75.4025 71.7088 74.2279 74.2508L75.1357 74.6702ZM77.0193 64.1559H78.0193C78.0193 59.8138 77.3801 56.1792 76.0424 53.3041L75.1357 53.7259L74.229 54.1478C75.4028 56.6704 76.0193 59.9891 76.0193 64.1559H77.0193ZM75.1357 53.7259L76.0448 53.3093C74.7222 50.4237 72.726 48.2632 70.0581 46.8784L69.5974 47.7659L69.1367 48.6535C71.3793 49.8175 73.0752 51.6304 74.2266 54.1426L75.1357 53.7259ZM69.5974 47.7659L70.0581 46.8784C67.4243 45.5112 64.2291 44.8542 60.5169 44.8542V45.8542V46.8542C64.0016 46.8542 66.8601 47.4717 69.1367 48.6535L69.5974 47.7659ZM60.5169 45.8542V44.8542H52.7576V45.8542V46.8542H60.5169V45.8542ZM52.7576 45.8542H51.7576V82.57H52.7576H53.7576V45.8542H52.7576Z" fill="#676767" mask="url(#path-2-outside-1_2018_225)"/>
<defs>
<linearGradient id="paint0_linear_2018_225" x1="64" y1="0" x2="64" y2="128" gradientUnits="userSpaceOnUse">
<stop/>
<stop offset="1" stop-color="#2F2F2F"/>
</linearGradient>
</defs>
</svg>
