<svg width="93" height="95" viewBox="0 0 93 95" fill="none" xmlns="http://www.w3.org/2000/svg">
<g clip-path="url(#clip0_2011_221)">
<path d="M46.121 44.3514C47.3046 44.3514 48.2655 45.3123 48.2655 46.4959C48.2655 47.6795 47.3046 48.6404 46.121 48.6404C40.539 48.6404 35.48 46.3748 31.82 42.7146L31.7067 42.5935C28.1169 38.9451 25.8981 33.9373 25.8981 28.4175C25.8981 22.8394 28.1637 17.7845 31.82 14.1245C35.4802 10.4565 40.5388 8.19481 46.121 8.19481C51.7032 8.19481 56.762 10.4604 60.422 14.1206C64.0822 17.7808 66.3478 22.8394 66.3478 28.4216V35.906C66.3478 37.8201 65.5666 39.5622 64.3048 40.8201L64.172 40.9412C62.922 42.1326 61.2345 42.8631 59.3908 42.8631C57.4846 42.8631 55.7424 42.0818 54.4846 40.8201C53.4377 39.7732 52.7229 38.4021 52.5041 36.8826C50.7307 38.2264 48.5197 39.0193 46.1252 39.0193C43.2111 39.0193 40.5588 37.8318 38.633 35.9099C36.7111 33.9841 35.5236 31.3357 35.5236 28.4216C35.5236 25.4997 36.7111 22.8513 38.6291 20.9333C40.5549 19.0075 43.2033 17.82 46.1252 17.82C49.051 17.82 51.7033 19.0075 53.6213 20.9255C55.5393 22.8435 56.7268 25.4958 56.7268 28.4216V35.906C56.7268 36.6404 57.0276 37.3083 57.5081 37.7927C57.9924 38.2693 58.6604 38.5739 59.3948 38.5739C60.0901 38.5739 60.7268 38.3083 61.2386 37.8318C61.762 37.3083 62.0628 36.6404 62.0628 35.906V28.4216C62.0628 24.0193 60.2776 20.0388 57.3987 17.1556C54.5198 14.2767 50.5315 12.4876 46.1327 12.4876C41.7343 12.4876 37.746 14.2728 34.8667 17.1517C31.9839 20.0306 30.2026 24.015 30.2026 28.4217C30.2026 32.7772 31.9448 36.7186 34.7651 39.5937L34.8666 39.6874C37.7455 42.5702 41.7338 44.3515 46.1326 44.3515L46.121 44.3514ZM78.824 50.5311C78.7498 50.6327 78.6638 50.7264 78.574 50.8123L63.359 67.9844L90.902 89.9144C91.7575 88.43 92.2497 86.7151 92.2497 84.887V43.258C92.2497 41.1057 91.57 39.1057 90.4099 37.4611L78.8279 50.5271L78.824 50.5311ZM74.9568 48.453V0H17.2888V48.453L32.2378 65.32L44.7928 55.3239C45.5936 54.6872 46.7108 54.7184 47.4764 55.3356L60.0114 65.32L74.9604 48.457L74.9568 48.453ZM13.6718 50.8124C13.582 50.7265 13.496 50.6327 13.4218 50.5312L1.8398 37.4651C0.6796 39.1096 0 41.1097 0 43.2621V84.8911C0 86.7153 0.49219 88.4341 1.3477 89.9184L28.8907 67.9883L13.6757 50.8163L13.6718 50.8124ZM12.996 43.6054V33.1484H10.1093C8.23822 33.1484 6.48822 33.664 4.98042 34.5586L12.9999 43.6055L12.996 43.6054ZM79.246 33.1484V43.6054L87.2655 34.5585C85.7577 33.664 84.0038 33.1483 82.1327 33.1483L79.246 33.1484ZM88.0155 93.0934L46.1205 59.7344L4.22552 93.0934C5.88572 94.2887 7.92082 94.9957 10.1083 94.9957H82.1353C84.3267 94.9957 86.358 94.2887 88.0181 93.0934H88.0155ZM52.4255 28.5424C52.406 26.6283 51.7029 25.0776 50.5778 23.9565C49.4372 22.8159 47.859 22.1088 46.1169 22.1088C44.3708 22.1088 42.7927 22.8158 41.6521 23.9526C40.5154 25.0932 39.8083 26.6714 39.8083 28.4174C39.8083 30.1634 40.5153 31.7416 41.6481 32.8783C42.7887 34.0228 44.3708 34.726 46.1169 34.726C47.8591 34.726 49.4372 34.019 50.5778 32.8783C51.695 31.7689 52.3903 30.2416 52.4255 28.5424Z" fill="black"/>
</g>
<defs>
<clipPath id="clip0_2011_221">
<rect width="92.2497" height="94.9957" fill="white"/>
</clipPath>
</defs>
</svg>
