<svg width="89" height="95" viewBox="0 0 89 95" fill="none" xmlns="http://www.w3.org/2000/svg">
<g clip-path="url(#clip0_2013_223)">
<path d="M88.9307 34.9219C88.9079 28.914 86.8354 23.0937 83.0559 18.4235C84.3388 13.084 83.9384 7.4783 81.9096 2.37535C81.7122 1.89043 81.4096 1.45533 81.0238 1.10138C80.638 0.747427 80.1785 0.48343 79.6784 0.328396C78.2455 -0.162873 72.8211 -1.084 61.7676 6.08033C57.0136 4.8257 52.1092 4.23332 47.1932 4.31996C42.2705 4.23222 37.3592 4.8246 32.5984 6.08033C21.2583 -1.24776 15.3631 -0.0605266 14.1758 0.287456C13.673 0.449416 13.2122 0.720597 12.8264 1.08156C12.4407 1.44253 12.1396 1.88434 11.9447 2.37535C9.91075 7.46169 9.49613 13.0518 10.7574 18.3825C6.85437 23.0294 4.77373 28.9367 4.90312 35.0038C4.90312 57.6431 17.8604 64.4799 29.7327 66.8953C29.1233 68.3857 28.7038 69.9468 28.4841 71.5419C28.4626 71.7118 28.4626 71.8837 28.4841 72.0537V78.3173C17.6761 79.218 15.3631 72.8929 15.1379 72.1765C15.0855 72.0095 15.024 71.8455 14.9537 71.6852C12.8661 67.4261 9.19143 64.1556 4.71889 62.5763C3.8177 62.275 2.83373 62.344 1.98344 62.7682C1.13315 63.1924 0.486188 63.9369 0.184886 64.8381C-0.116416 65.7393 -0.0473781 66.7233 0.376808 67.5736C0.800994 68.4239 1.54558 69.0708 2.44677 69.3721C4.92527 70.2675 6.99217 72.0361 8.26013 74.3462C9.693 78.9928 15.5473 86.3414 28.4431 85.5226V91.4178C28.4431 92.3679 28.8205 93.279 29.4923 93.9508C30.1641 94.6226 31.0752 95 32.0253 95C32.9753 95 33.8865 94.6226 34.5583 93.9508C35.2301 93.279 35.6075 92.3679 35.6075 91.4178V72.3198C35.8792 70.2342 36.787 68.2829 38.2071 66.7316C38.7046 66.2659 39.058 65.6673 39.2255 65.0067C39.393 64.3462 39.3675 63.6515 39.152 63.005C38.9365 62.3585 38.5401 61.7875 38.0098 61.3595C37.4795 60.9316 36.8375 60.6648 36.1601 60.5907C23.6737 59.1374 12.1289 55.023 12.1289 34.8605C12.0459 32.4267 12.4687 30.0022 13.3707 27.7402C14.2727 25.4782 15.6342 23.4279 17.3691 21.7191C17.8356 21.2169 18.158 20.5981 18.3021 19.928C18.4462 19.2579 18.4067 18.5613 18.1879 17.9117C16.982 14.4076 16.9032 10.614 17.9627 7.06288C22.358 8.05522 26.4855 9.98977 30.0602 12.7329C30.5195 13.0369 31.0415 13.2334 31.5873 13.3079C32.133 13.3823 32.6886 13.3327 33.2125 13.1628C37.7607 11.7785 42.5021 11.1357 47.2546 11.2591C52.0005 11.1354 56.7352 11.7782 61.2763 13.1628C61.8 13.3342 62.3558 13.3846 62.9018 13.3101C63.4479 13.2356 63.9699 13.0383 64.4286 12.7329C67.8717 10.0949 71.8125 8.18015 76.0144 7.10381C77.0579 10.6942 76.965 14.5195 75.7483 18.055C75.5479 18.645 75.5067 19.2774 75.6289 19.8884C75.7511 20.4994 76.0323 21.0673 76.4442 21.5348C79.833 25.153 81.7523 29.9038 81.8277 34.8605C81.8277 54.9821 69.6893 59.1578 57.7965 60.5907C57.0844 60.6699 56.4128 60.962 55.8694 61.4288C55.3259 61.8956 54.9359 62.5155 54.7502 63.2074C54.5645 63.8993 54.5918 64.6312 54.8285 65.3074C55.0652 65.9835 55.5003 66.5726 56.077 66.9977C57.3461 67.9597 58.8199 70.6617 58.8199 75.1855V91.3974C58.8199 92.3474 59.1974 93.2586 59.8691 93.9303C60.5409 94.6021 61.4521 94.9795 62.4021 94.9795C63.3522 94.9795 64.2633 94.6021 64.9351 93.9303C65.6069 93.2586 65.9843 92.3474 65.9843 91.3974V75.1855C66.0217 72.3348 65.5001 69.5045 64.4491 66.8544C74.0698 64.8074 88.9307 58.4824 88.9307 34.9219Z" fill="#CACACA"/>
</g>
<defs>
<clipPath id="clip0_2013_223">
<rect width="88.9306" height="95" fill="white"/>
</clipPath>
</defs>
</svg>
