<svg width="95" height="95" viewBox="0 0 95 95" fill="none" xmlns="http://www.w3.org/2000/svg">
<g clip-path="url(#clip0_2013_225)">
<path d="M86.4065 0H8.59352C3.8475 0 0 3.8475 0 8.59352V86.4062C0 91.1525 3.8475 95 8.59352 95H86.4062C91.1525 95 95 91.1525 95 86.4062V8.59352C95 3.8475 91.1525 0 86.4065 0ZM29.397 82.0293C29.397 83.4105 28.2774 84.5301 26.8962 84.5301H16.2507C14.8695 84.5301 13.7499 83.4105 13.7499 82.0293V37.4039C13.7499 36.0227 14.8695 34.903 16.2507 34.903H26.8962C28.2774 34.903 29.397 36.0227 29.397 37.4039V82.0293ZM21.5735 30.6964C15.9881 30.6964 11.4602 26.1685 11.4602 20.5832C11.4602 14.9978 15.9881 10.4699 21.5735 10.4699C27.1588 10.4699 31.6867 14.9978 31.6867 20.5832C31.6867 26.1685 27.1591 30.6964 21.5735 30.6964ZM85.03 82.2307C85.03 83.5005 84.0004 84.5301 82.7306 84.5301H71.3072C70.0374 84.5301 69.0078 83.5005 69.0078 82.2307V61.2989C69.0078 58.1763 69.9237 47.6156 60.8475 47.6156C53.8073 47.6156 52.3793 54.8441 52.0926 58.088V82.2307C52.0926 83.5005 51.0632 84.5301 49.7932 84.5301H38.7448C37.475 84.5301 36.4454 83.5005 36.4454 82.2307V37.2024C36.4454 35.9326 37.475 34.903 38.7448 34.903H49.7932C51.063 34.903 52.0926 35.9326 52.0926 37.2024V41.0957C54.7031 37.1781 58.5827 34.1542 66.8429 34.1542C85.1347 34.1542 85.03 51.2433 85.03 60.6329V82.2307Z" fill="#CACACA"/>
</g>
<defs>
<clipPath id="clip0_2013_225">
<rect width="95" height="95" fill="white"/>
</clipPath>
</defs>
</svg>
