<svg width="457" height="95" viewBox="0 0 457 95" fill="none" xmlns="http://www.w3.org/2000/svg">
<path d="M125.459 54.5048C125.459 67.887 114.725 78.6207 101.343 78.6207H86.0088L89.3544 74.2993C91.8635 70.8144 92.2817 66.2142 90.3302 62.5899C88.7968 59.2443 85.5906 57.1533 81.9662 56.4563V39.5891C81.9662 33.3162 76.8085 28.1585 70.5356 28.1585H54.5048C48.2318 28.1585 43.0741 33.3162 43.0741 39.5891V56.3169C39.5891 56.8745 36.383 59.1049 34.7102 62.4505C32.7586 66.3536 33.1768 70.8144 35.686 74.1599L39.0315 78.4813H23.6977C10.7337 78.4813 0 67.7476 0 54.5048C0 41.1225 10.7337 30.3888 24.1159 30.3888C25.6493 30.3888 27.0433 30.5282 28.5767 30.807C30.3888 13.5216 44.8863 0 62.7293 0C80.5723 0 95.0697 13.5216 96.8819 30.807C98.2759 30.6676 99.8092 30.3888 101.343 30.3888C114.725 30.3888 125.459 41.2619 125.459 54.5048ZM45.0257 63.5657H50.8804V39.5891C50.8804 37.4982 52.6926 35.8254 54.6442 35.8254H70.675C72.766 35.8254 74.4387 37.6376 74.4387 39.5891V63.7051H80.2935C83.4996 63.7051 85.1724 67.19 83.2208 69.8386L65.6566 93.5363C64.1233 95.4879 61.1959 95.4879 59.5231 93.5363L41.9589 69.8386C40.1467 67.0506 41.9589 63.5657 45.0257 63.5657Z" fill="#CACACA"/>
<path d="M150.565 76V18.4242H173.281C177.629 18.4242 181.34 19.202 184.413 20.7576C187.506 22.2945 189.858 24.4779 191.47 27.308C193.1 30.1193 193.916 33.4273 193.916 37.2319C193.916 41.0553 193.091 44.3446 191.442 47.0997C189.792 49.836 187.403 51.9351 184.273 53.397C181.162 54.8589 177.394 55.5898 172.971 55.5898H157.762V45.8065H171.003C173.327 45.8065 175.258 45.4878 176.795 44.8506C178.332 44.2134 179.475 43.2575 180.224 41.9831C180.993 40.7086 181.377 39.1249 181.377 37.2319C181.377 35.3203 180.993 33.7084 180.224 32.3965C179.475 31.0845 178.322 30.0912 176.767 29.4165C175.23 28.723 173.29 28.3763 170.947 28.3763H162.738V76H150.565ZM181.658 49.7985L195.968 76H182.53L168.529 49.7985H181.658ZM221.277 76.8434C216.835 76.8434 213.011 75.9438 209.807 74.1445C206.62 72.3265 204.165 69.7589 202.441 66.4415C200.717 63.1054 199.855 59.1602 199.855 54.6059C199.855 50.164 200.717 46.2656 202.441 42.9108C204.165 39.556 206.592 36.9414 209.722 35.0672C212.871 33.193 216.563 32.2559 220.799 32.2559C223.648 32.2559 226.3 32.7151 228.755 33.6335C231.229 34.5331 233.384 35.8919 235.221 37.7099C237.076 39.5279 238.519 41.8144 239.55 44.5695C240.581 47.3058 241.097 50.5107 241.097 54.1842V57.4734H204.634V50.0515H229.823C229.823 48.3273 229.448 46.7998 228.699 45.4691C227.949 44.1384 226.909 43.0982 225.578 42.3485C224.266 41.5801 222.739 41.1959 220.996 41.1959C219.178 41.1959 217.566 41.6176 216.16 42.461C214.773 43.2856 213.686 44.4008 212.899 45.8065C212.112 47.1934 211.709 48.7396 211.69 50.4451V57.5015C211.69 59.6381 212.084 61.4842 212.871 63.0398C213.677 64.5954 214.811 65.7949 216.273 66.6383C217.734 67.4817 219.468 67.9034 221.474 67.9034C222.804 67.9034 224.022 67.716 225.128 67.3411C226.234 66.9663 227.18 66.404 227.968 65.6544C228.755 64.9047 229.355 63.9863 229.767 62.8993L240.843 63.6302C240.281 66.2916 239.129 68.6156 237.386 70.6023C235.661 72.5702 233.431 74.107 230.695 75.2128C227.977 76.2999 224.838 76.8434 221.277 76.8434ZM284.841 45.1317L273.876 45.8065C273.689 44.8694 273.286 44.026 272.668 43.2763C272.049 42.5079 271.234 41.8987 270.222 41.4489C269.228 40.9804 268.038 40.7461 266.651 40.7461C264.796 40.7461 263.231 41.1397 261.956 41.9268C260.682 42.6953 260.045 43.7261 260.045 45.0193C260.045 46.0501 260.457 46.9216 261.282 47.6338C262.106 48.346 263.521 48.9177 265.527 49.3487L273.342 50.9231C277.541 51.7852 280.67 53.1721 282.732 55.0838C284.794 56.9955 285.825 59.5069 285.825 62.6181C285.825 65.4482 284.991 67.9315 283.322 70.0681C281.673 72.2047 279.405 73.8728 276.519 75.0723C273.652 76.253 270.344 76.8434 266.595 76.8434C260.879 76.8434 256.324 75.6533 252.932 73.273C249.559 70.874 247.581 67.6129 247 63.4896L258.78 62.8712C259.136 64.6142 259.998 65.9449 261.366 66.8632C262.734 67.7628 264.487 68.2127 266.623 68.2127C268.722 68.2127 270.409 67.8097 271.684 67.0038C272.977 66.1791 273.633 65.1202 273.652 63.827C273.633 62.74 273.174 61.8497 272.274 61.1563C271.374 60.444 269.987 59.9005 268.113 59.5257L260.635 58.0357C256.418 57.1923 253.279 55.7304 251.217 53.65C249.174 51.5697 248.153 48.9177 248.153 45.694C248.153 42.9202 248.903 40.5306 250.402 38.5252C251.92 36.5197 254.047 34.9735 256.784 33.8865C259.539 32.7994 262.762 32.2559 266.455 32.2559C271.909 32.2559 276.2 33.4086 279.33 35.7138C282.479 38.0191 284.316 41.1584 284.841 45.1317ZM321.057 57.614V32.8182H333.034V76H321.535V68.1564H321.085C320.111 70.6866 318.49 72.7201 316.222 74.257C313.973 75.7938 311.227 76.5623 307.985 76.5623C305.098 76.5623 302.559 75.9063 300.366 74.5943C298.173 73.2824 296.458 71.4176 295.221 68.9998C294.003 66.5821 293.385 63.6864 293.366 60.3129V32.8182H305.342V58.1763C305.361 60.7252 306.045 62.74 307.394 64.2206C308.744 65.7012 310.552 66.4415 312.82 66.4415C314.263 66.4415 315.613 66.1135 316.869 65.4576C318.124 64.7828 319.136 63.7895 319.905 62.4776C320.692 61.1656 321.076 59.5444 321.057 57.614ZM342.613 76V32.8182H354.027V40.4369H354.533C355.433 37.9067 356.932 35.9106 359.031 34.4487C361.13 32.9869 363.642 32.2559 366.566 32.2559C369.527 32.2559 372.048 32.9962 374.128 34.4769C376.208 35.9387 377.595 37.9254 378.289 40.4369H378.739C379.619 37.9629 381.213 35.9856 383.518 34.505C385.842 33.0056 388.588 32.2559 391.755 32.2559C395.785 32.2559 399.055 33.5398 401.566 36.1074C404.097 38.6563 405.362 42.2736 405.362 46.9591V76H393.414V49.3206C393.414 46.9216 392.776 45.1224 391.502 43.9229C390.227 42.7234 388.634 42.1236 386.723 42.1236C384.549 42.1236 382.852 42.8171 381.634 44.204C380.416 45.5722 379.807 47.3808 379.807 49.6299V76H368.196V49.0676C368.196 46.9497 367.587 45.2629 366.369 44.0072C365.169 42.7515 363.586 42.1236 361.618 42.1236C360.287 42.1236 359.087 42.461 358.019 43.1357C356.97 43.7917 356.136 44.7194 355.517 45.9189C354.899 47.0997 354.589 48.4866 354.589 50.0797V76H342.613ZM434.501 76.8434C430.059 76.8434 426.236 75.9438 423.031 74.1445C419.845 72.3265 417.389 69.7589 415.665 66.4415C413.941 63.1054 413.079 59.1602 413.079 54.6059C413.079 50.164 413.941 46.2656 415.665 42.9108C417.389 39.556 419.817 36.9414 422.946 35.0672C426.095 33.193 429.787 32.2559 434.023 32.2559C436.872 32.2559 439.524 32.7151 441.979 33.6335C444.453 34.5331 446.608 35.8919 448.445 37.7099C450.301 39.5279 451.744 41.8144 452.775 44.5695C453.805 47.3058 454.321 50.5107 454.321 54.1842V57.4734H417.858V50.0515H443.047C443.047 48.3273 442.673 46.7998 441.923 45.4691C441.173 44.1384 440.133 43.0982 438.802 42.3485C437.49 41.5801 435.963 41.1959 434.22 41.1959C432.402 41.1959 430.79 41.6176 429.384 42.461C427.997 43.2856 426.91 44.4008 426.123 45.8065C425.336 47.1934 424.933 48.7396 424.914 50.4451V57.5015C424.914 59.6381 425.308 61.4842 426.095 63.0398C426.901 64.5954 428.035 65.7949 429.497 66.6383C430.959 67.4817 432.692 67.9034 434.698 67.9034C436.028 67.9034 437.247 67.716 438.352 67.3411C439.458 66.9663 440.405 66.404 441.192 65.6544C441.979 64.9047 442.579 63.9863 442.991 62.8993L454.068 63.6302C453.505 66.2916 452.353 68.6156 450.61 70.6023C448.886 72.5702 446.655 74.107 443.919 75.2128C441.201 76.2999 438.062 76.8434 434.501 76.8434Z" fill="#CACACA"/>
</svg>
